<svg width="48" height="48" viewBox="0 0 48 48" fill="none" xmlns="http://www.w3.org/2000/svg">
<g clip-path="url(#clip0_1253_9567)">
<path d="M37.689 0H10.3111C4.61645 0 0 4.61645 0 10.3111V37.689C0 43.3835 4.61645 48 10.3111 48H37.689C43.3835 48 48 43.3835 48 37.689V10.3111C48 4.61645 43.3835 0 37.689 0Z" fill="white"/>
<path d="M14.4267 37.2209H19.7813C19.917 37.2215 20.0491 37.1777 20.1576 37.0961C20.2661 37.0146 20.345 36.8999 20.3823 36.7693L27.2783 12.9934C27.3053 12.9001 27.3103 12.8019 27.2928 12.7065C27.2752 12.611 27.2359 12.5209 27.1776 12.4433C27.1192 12.3657 27.0437 12.3027 26.957 12.2594C26.8701 12.216 26.7744 12.1934 26.6773 12.1934H21.3227C21.1871 12.1934 21.0552 12.2374 20.9469 12.3189C20.8386 12.4003 20.7595 12.5147 20.7218 12.6449L13.8276 36.4209C13.8002 36.514 13.7949 36.6122 13.8122 36.7076C13.8294 36.8031 13.8686 36.8933 13.9268 36.9709C13.9849 37.0485 14.0604 37.1116 14.1472 37.1551C14.234 37.1985 14.3297 37.221 14.4267 37.2209Z" fill="#028B3A"/>
<path d="M28.8195 37.2209H34.1742C34.3098 37.2209 34.4416 37.1769 34.5501 37.0954C34.6584 37.014 34.7374 36.8996 34.775 36.7693L41.6693 12.9934C41.6963 12.9001 41.7013 12.8019 41.6838 12.7065C41.6664 12.611 41.6269 12.5209 41.5686 12.4433C41.5104 12.3657 41.4349 12.3027 41.348 12.2594C41.2613 12.216 41.1654 12.1934 41.0685 12.1934H35.7138C35.5782 12.1937 35.4466 12.2378 35.3382 12.3192C35.2299 12.4006 35.1509 12.5149 35.113 12.6449L28.2187 36.4209C28.1912 36.5141 28.1861 36.6125 28.2034 36.7081C28.2206 36.8037 28.26 36.894 28.3184 36.9717C28.3768 37.0493 28.4525 37.1124 28.5395 37.1556C28.6264 37.1989 28.7224 37.2212 28.8195 37.2209Z" fill="#88E518"/>
<path d="M19.7813 37.2209H13.8275C13.6918 37.2215 13.5597 37.1777 13.4512 37.0961C13.3427 37.0146 13.2639 36.8999 13.2266 36.7693L6.33065 12.9934C6.30362 12.9001 6.29866 12.8019 6.31614 12.7065C6.33361 12.611 6.37305 12.5209 6.43134 12.4433C6.48962 12.3657 6.56514 12.3027 6.65196 12.2594C6.73878 12.216 6.83449 12.1934 6.93154 12.1934H12.8871C13.0226 12.1937 13.1543 12.2378 13.2626 12.3192C13.3709 12.4006 13.45 12.5149 13.488 12.6449L20.3822 36.4209C20.4096 36.5141 20.4149 36.6125 20.3976 36.7081C20.3803 36.8037 20.3408 36.894 20.2824 36.9717C20.2242 37.0493 20.1485 37.1124 20.0614 37.1556C19.9744 37.1989 19.8786 37.2212 19.7813 37.2209Z" fill="#7EE3A1"/>
<path d="M34.1743 37.2209H28.2187C28.0831 37.2215 27.9509 37.1777 27.8424 37.0961C27.7339 37.0146 27.6551 36.8999 27.6178 36.7693L20.7218 12.9934C20.6947 12.9001 20.6898 12.8019 20.7072 12.7065C20.7248 12.611 20.7642 12.5209 20.8224 12.4433C20.8808 12.3657 20.9563 12.3027 21.0431 12.2594C21.1299 12.216 21.2256 12.1934 21.3227 12.1934H27.2783C27.4138 12.1934 27.5456 12.2374 27.6541 12.3189C27.7624 12.4003 27.8415 12.5147 27.8791 12.6449L34.7751 36.4209C34.8021 36.5141 34.8071 36.6124 34.7896 36.7077C34.7722 36.8033 34.7327 36.8933 34.6744 36.9709C34.6162 37.0485 34.5407 37.1116 34.4538 37.1549C34.3671 37.1983 34.2712 37.2209 34.1743 37.2209Z" fill="#03C75A"/>
</g>
<defs>
<clipPath id="clip0_1253_9567">
<rect width="48" height="48" fill="white"/>
</clipPath>
</defs>
</svg>
