<svg width="458" height="114" viewBox="0 0 458 114" fill="none" xmlns="http://www.w3.org/2000/svg">
<path d="M219.215 29.7188H230.219C235 29.7188 238.645 30.5156 241.152 32.1094C243.215 33.3984 244.832 35.2148 246.004 37.5586C247.176 39.9727 247.762 42.5156 247.762 45.1875C247.762 49.0781 246.672 52.5 244.492 55.4531C241.258 59.8359 236.16 62.0273 229.199 62.0273H223.258L220.551 84H212.5L219.215 29.7188ZM226.316 37.207L224.137 54.8906H229.375C232.68 54.8906 235.211 54.0469 236.969 52.3594C238.75 50.6484 239.641 48.1875 239.641 44.9766C239.641 39.7969 236.336 37.207 229.727 37.207H226.316ZM287.728 67.125C287.728 72.1875 285.97 76.4414 282.455 79.8867C278.963 83.332 274.65 85.0547 269.517 85.0547C264.15 85.0547 259.767 83.4258 256.369 80.168C252.947 76.8867 251.236 72.7383 251.236 67.7227C251.236 62.5898 253.005 58.3242 256.545 54.9258C260.107 51.5039 264.56 49.793 269.904 49.793C275.154 49.793 279.431 51.4102 282.736 54.6445C286.064 57.832 287.728 61.9922 287.728 67.125ZM279.888 66.7383C279.888 63.5508 278.963 61.0312 277.111 59.1797C275.259 57.2578 272.834 56.2969 269.834 56.2969C266.716 56.2969 264.138 57.3633 262.099 59.4961C260.06 61.6523 259.041 64.3594 259.041 67.6172C259.041 70.8984 260.002 73.5352 261.923 75.5273C263.845 77.5664 266.33 78.5859 269.377 78.5859C272.423 78.5859 274.931 77.4727 276.9 75.2461C278.892 73.043 279.888 70.207 279.888 66.7383ZM307.691 50.8828L307.269 54.3633C310.62 51.5039 314.148 50.0742 317.851 50.0742C322.257 50.0742 325.925 51.6094 328.855 54.6797C331.784 57.75 333.249 61.6289 333.249 66.3164C333.249 71.5195 331.573 75.9023 328.222 79.4648C324.894 83.0039 320.757 84.7734 315.812 84.7734C313.28 84.7734 311.206 84.375 309.589 83.5781C307.902 82.7812 306.109 81.3398 304.21 79.2539L301.292 102.949H293.523L299.921 50.8828H307.691ZM325.48 66.6328C325.48 63.7031 324.636 61.3008 322.948 59.4258C321.261 57.5273 319.105 56.5781 316.48 56.5781C313.339 56.5781 310.714 57.7266 308.605 60.0234C306.495 62.3203 305.441 65.1445 305.441 68.4961C305.441 71.4258 306.331 73.7812 308.113 75.5625C309.894 77.3906 312.191 78.3047 315.003 78.3047C317.956 78.3047 320.441 77.1797 322.456 74.9297C324.472 72.6328 325.48 69.8672 325.48 66.6328ZM349.309 70.2188C349.309 72.6562 350.153 74.6602 351.841 76.2305C353.552 77.8008 355.731 78.5859 358.38 78.5859C362.012 78.5859 364.802 77.2266 366.747 74.5078L372.548 77.707C370.532 80.4258 368.458 82.3242 366.325 83.4023C364.169 84.5039 361.473 85.0547 358.239 85.0547C353.106 85.0547 349.016 83.543 345.97 80.5195C342.923 77.4961 341.399 73.4531 341.399 68.3906C341.399 63.0938 343.075 58.6641 346.427 55.1016C349.755 51.5625 353.962 49.793 359.048 49.793C363.97 49.793 367.848 51.3867 370.684 54.5742C373.567 57.7852 375.009 62.0859 375.009 67.4766C375.009 68.0391 374.973 68.9531 374.903 70.2188H349.309ZM367.134 63.9609C366.313 58.8516 363.489 56.2969 358.661 56.2969C354.091 56.2969 351.114 58.8516 349.731 63.9609H367.134ZM417.752 50.8828L387.764 102.949H378.905L392.229 79.8867L380.381 50.8828H388.678L396.87 72.0469L408.858 50.8828H417.752ZM428.398 70.2188C428.398 72.6562 429.242 74.6602 430.93 76.2305C432.641 77.8008 434.82 78.5859 437.469 78.5859C441.102 78.5859 443.891 77.2266 445.836 74.5078L451.637 77.707C449.621 80.4258 447.547 82.3242 445.414 83.4023C443.258 84.5039 440.562 85.0547 437.328 85.0547C432.195 85.0547 428.105 83.543 425.059 80.5195C422.012 77.4961 420.488 73.4531 420.488 68.3906C420.488 63.0938 422.164 58.6641 425.516 55.1016C428.844 51.5625 433.051 49.793 438.137 49.793C443.059 49.793 446.938 51.3867 449.773 54.5742C452.656 57.7852 454.098 62.0859 454.098 67.4766C454.098 68.0391 454.062 68.9531 453.992 70.2188H428.398ZM446.223 63.9609C445.402 58.8516 442.578 56.2969 437.75 56.2969C433.18 56.2969 430.203 58.8516 428.82 63.9609H446.223Z" fill="url(#paint0_linear_4508_2591)"/>
<path d="M159.629 113.498L160 21.8171V21.6943C160 15.9343 157.776 10.541 153.575 6.37333C149.498 2.20667 143.938 0 138.131 0L21.8686 0C16.0619 0 10.5019 2.20667 6.42476 6.37333C2.34762 10.419 -4.76837e-07 15.9343 -4.76837e-07 21.6952V21.8181L0.247613 113.499H5.80667C34.3476 113.499 60.4162 102.59 79.8143 84.6952C100.077 103.326 126.148 113.499 153.946 113.499H159.63L159.629 113.498ZM106.873 46.2095C111.321 35.301 114.163 23.5333 114.781 11.1543H115.029C117.621 28.3143 131.458 41.9181 148.756 44.2476L148.632 67.2905C132.447 65.9419 117.621 58.4648 106.871 46.2086L106.873 46.2095ZM145.669 14.219C147.646 16.18 148.758 18.8762 148.758 21.6952V32.8495C137.514 30.7657 128.619 22.0629 126.271 11.0324H138.131C140.973 11.1543 143.691 12.2581 145.668 14.219H145.669ZM44.9733 11.1543L68.2019 11.1543C65.4838 40.939 41.3905 64.7162 11.3676 67.2914L11.2438 44.2486C28.6648 41.7971 42.379 28.3143 44.9743 11.1543H44.9733ZM11.2438 21.8181C11.2438 18.999 12.3562 16.3029 14.3333 14.3419C16.3095 12.38 19.0286 11.2771 21.8695 11.2771L33.6067 11.2771C31.26 22.3086 22.4876 31.0105 11.2448 33.0943V21.8181H11.2438ZM11.4914 102.223L11.3676 78.3219C47.5676 75.6257 76.6029 46.9448 79.4448 11.0324L103.537 11.0324C100.695 60.1819 60.9114 99.5267 11.4895 102.223H11.4914ZM87.7219 76.7276C93.0751 70.6736 97.7564 64.0572 101.684 56.9943C114.162 69.4962 130.718 77.0952 148.633 78.4438L148.51 102.345C125.776 100.996 104.525 92.0495 87.7219 76.7276V76.7276Z" fill="url(#paint1_linear_4508_2591)"/>
<defs>
<linearGradient id="paint0_linear_4508_2591" x1="433.818" y1="107.244" x2="407.333" y2="9.23692" gradientUnits="userSpaceOnUse">
<stop stop-color="#5C33F3"/>
<stop offset="1" stop-color="#2CADFF"/>
</linearGradient>
<linearGradient id="paint1_linear_4508_2591" x1="-5.40641" y1="102.52" x2="82.9312" y2="14.8867" gradientUnits="userSpaceOnUse">
<stop stop-color="#5C33F3"/>
<stop offset="1" stop-color="#2CADFF"/>
</linearGradient>
</defs>
</svg>
