<svg width="349" height="349" viewBox="0 0 349 349" fill="none" xmlns="http://www.w3.org/2000/svg">
<path d="M291.373 246.372C253.214 309.229 148.331 303.243 85.474 265.084C22.6169 226.925 25.5889 171.044 63.7479 108.187C101.907 45.3296 141.893 26.7282 204.75 64.8871C267.607 103.046 329.532 183.515 291.373 246.372Z" fill="#00A356"/>
<path d="M202.354 207.318C195.028 214.926 185.077 219.416 174 219.416C162.923 219.416 152.967 214.735 145.646 207.318C138.319 199.71 134 189.366 134 177.854C134 161.464 155.219 128.88 169.303 107.22C170.993 104.686 172.496 102.146 174 100C175.504 102.146 177.007 104.681 178.697 107.22C192.781 129.072 214 161.464 214 177.854C214 189.366 209.495 199.705 202.354 207.318Z" stroke="white" stroke-width="10" stroke-linecap="round" stroke-linejoin="round"/>
<path d="M174.069 141.254V243.451" stroke="white" stroke-width="10" stroke-linecap="round" stroke-linejoin="round"/>
<path d="M175.259 205.316L211.508 169.066" stroke="white" stroke-width="10" stroke-linecap="round" stroke-linejoin="round"/>
<path d="M204.803 152.294L173.952 183.151" stroke="white" stroke-width="10" stroke-linecap="round" stroke-linejoin="round"/>
<path d="M172.645 205.315L135.567 168.243" stroke="white" stroke-width="10" stroke-linecap="round" stroke-linejoin="round"/>
<path d="M143.096 152.294L173.953 183.151" stroke="white" stroke-width="10" stroke-linecap="round" stroke-linejoin="round"/>
</svg>
