<svg width="128" height="128" viewBox="0 0 128 128" fill="none" xmlns="http://www.w3.org/2000/svg">
<path d="M30.9396 78.7496C30.9396 77.8096 30.6296 64.3196 29.3696 59.4596C28.1096 54.5996 25.7596 52.3996 25.1296 45.3396C24.4996 38.2796 28.5996 32.3596 30.4696 30.1496C33.9196 26.0796 38.9296 24.1696 38.9296 24.1696C38.9296 24.1696 37.7596 16.9996 43.3196 13.6596C49.5996 9.88956 54.3096 15.9996 55.2496 16.4696C56.1896 16.9396 75.3296 6.43956 75.3296 6.43956C75.3296 6.43956 78.7796 3.82956 85.5296 3.92956C94.8496 4.05956 98.6796 9.71956 100.43 11.7696C103.1 14.9096 105.35 22.4996 105.2 27.0496C105.05 31.5996 103.97 33.7596 104.49 34.8396C105.01 35.9196 107.86 35.3896 110.42 38.4596C112.77 41.2796 115.92 45.7496 116.08 54.0596C116.23 62.1096 108.36 72.7496 106.48 74.4696C104.6 76.1996 102.39 77.9496 100.82 80.3096C99.2496 82.6596 97.2896 87.3996 93.2196 90.5396C89.1396 93.6796 82.8796 94.8996 78.7996 95.3696C74.7196 95.8396 70.5996 95.0296 67.7596 96.8996C64.8196 98.8296 61.3396 107.07 55.6796 111.49C52.3596 114.09 49.5496 115.09 46.3696 115.26C41.4896 115.53 39.3596 114.35 37.3896 113.79C34.0796 112.85 30.9396 78.7496 30.9396 78.7496Z" fill="#598B15"/>
<path d="M22.4299 102.03C22.4299 102.03 15.7899 97.1799 17.6299 87.9999C19.2699 79.7999 24.0699 76.3499 26.2499 68.7299C28.4099 61.1699 27.1299 57.8599 26.5799 54.2799C25.9799 50.3699 25.6599 50.0699 26.1099 49.8699C26.5799 49.6599 30.9399 61.6499 30.9399 61.9199C31.0299 65.3899 32.0199 71.2299 31.2899 74.7699C30.5599 78.3099 23.6599 83.3899 23.2099 86.8399C22.7599 90.2899 21.3899 98.0099 22.2099 100.09C23.0299 102.18 27.0199 102.92 27.0199 102.92L22.4299 102.03Z" fill="#85BB41"/>
<path d="M22.9404 101.02C22.5804 101.5 21.1304 103.31 19.5604 104.64C17.9904 105.97 14.4904 106.81 14.6104 107.66C14.7304 108.5 24.7404 117.55 24.7404 117.55L33.0404 123.52C33.0404 123.52 35.4804 120.65 37.0204 117.86C37.8604 116.34 38.8604 114.29 38.8604 114.29C38.8604 114.29 41.5204 115.51 45.6304 114.85C51.7804 113.87 57.3404 106.74 59.7404 102.47C61.2604 99.7697 64.0704 94.3797 68.5304 91.8497C72.9904 89.3197 78.3404 88.8897 83.4104 86.1197C87.3804 83.9397 92.7804 79.1797 94.9504 75.6897C97.1204 72.1897 97.0004 70.8897 97.0004 70.8897C97.0004 70.8897 108.7 57.3497 104.72 42.3897C100.74 27.4297 96.7604 29.1197 93.9804 25.2597C91.2104 21.3997 90.8404 11.6297 81.1904 7.64973C71.5404 3.66973 61.9004 7.62973 56.9204 11.6897C52.1304 15.5897 44.1804 21.9497 39.7904 36.6297C37.5204 44.2397 39.7804 56.7797 39.4904 60.0697C39.0104 65.4697 32.5904 72.6797 32.5904 72.6797C32.5904 72.6797 25.3504 80.8797 24.9904 81.8497C24.6304 82.8197 21.9704 94.7597 21.9704 94.7597L22.9404 101.02Z" fill="url(#paint0_radial_4575_2586)"/>
<path d="M41.6504 101.91C42.5604 102 49.7304 101 54.6304 94.5599C59.5304 88.1199 59.4404 80.4899 59.3504 80.7599C59.2604 81.0299 46.7304 82.3899 46.5504 86.6599C46.3704 90.9199 41.6504 101.91 41.6504 101.91Z" fill="#598B15"/>
<path d="M26.2804 104.73C26.2804 104.73 19.3804 102.47 20.0004 92.9904C20.6004 83.7404 28.0704 79.5505 29.4304 69.1604C30.0904 64.1304 28.6904 60.2104 27.4504 56.0004C26.1004 51.4104 25.0004 46.9704 25.7504 48.4604C26.9204 50.7904 27.7804 52.3104 30.5004 58.8704C32.1304 62.8004 33.4404 67.5404 32.8304 72.3304C31.8404 80.1204 24.4904 86.4805 23.8604 92.9104C23.1204 100.45 26.9104 103.68 26.9104 103.68L26.2804 104.73Z" fill="#E9E7D7"/>
<path d="M30.0397 111.83C27.7197 109.78 24.4697 105.4 26.0797 99.7104C28.1797 92.2904 32.7597 89.9404 37.3297 83.0104C41.8997 76.0804 42.6497 69.5604 42.7397 62.6204C42.8597 53.3404 43.3897 45.9004 44.9997 45.4104C46.6097 44.9204 45.7797 54.6704 46.1497 62.7104C46.4097 68.2704 47.0997 76.8204 47.0997 76.8204C47.0997 76.8204 52.0097 72.7004 53.1897 67.1304C55.2897 57.2404 51.3297 46.5304 52.1697 35.3904C52.7997 27.1004 56.7297 19.0504 60.6997 14.7404C63.5397 11.6504 66.3897 9.30041 67.2497 9.79041C68.1097 10.2804 62.2997 16.2204 59.7097 23.1504C57.1197 30.0804 56.5097 36.8804 57.4997 44.3004C58.4897 51.7204 59.8797 59.0804 60.7497 58.8304C61.6197 58.5804 66.9097 48.0604 68.5597 39.9704C70.1697 32.0504 70.9897 26.7404 74.8197 21.4204C78.6497 16.1004 83.1097 13.0104 83.8497 13.7504C85.1597 15.0604 80.2897 17.4504 77.0797 25.3604C75.1597 30.0804 75.1997 33.3304 73.5397 41.5104C72.6897 45.7204 69.5297 55.1404 69.6497 55.5204C69.7697 55.9004 74.1097 53.7004 77.1997 51.4804C80.2897 49.2604 85.7097 45.1404 90.5297 38.8304C93.2597 35.2504 95.0997 32.3004 96.3397 33.1604C97.5797 34.0304 92.0397 44.7004 86.9197 49.4704C79.6197 56.2704 70.2397 61.3604 70.2397 62.3404C70.2397 63.3204 79.1797 62.5304 88.0897 60.0704C95.2597 58.0904 102.89 52.5704 103.76 53.9304C104.63 55.2904 95.7197 60.3404 89.9197 62.5904C80.6397 66.1804 72.8397 65.8104 67.5197 69.0204C62.1997 72.2404 59.0197 77.5604 58.4897 78.5404C58.2997 78.8904 67.3897 76.4404 76.0497 75.2004C84.7097 73.9604 96.5797 69.7604 96.9497 71.1204C97.3197 72.4804 92.6197 75.2004 82.2297 77.6704C71.8397 80.1404 63.9297 82.4904 58.2397 86.0804C52.5497 89.6704 48.9697 94.0204 45.9997 99.2104C43.0297 104.4 42.9797 112.58 38.6497 114.44C35.7997 115.66 32.1497 113.68 30.0397 111.83Z" fill="#E9E7D7"/>
<path d="M14.7499 107.1C13.4699 107.74 13.9799 109.63 14.7399 110.78C15.8899 112.55 17.8399 114.56 22.5099 118.21C26.1399 121.04 27.9599 122.33 30.0599 123.24C31.6999 123.95 33.3499 123.99 33.6199 122.89C33.6899 122.61 27.7299 118.74 23.9799 115.76C17.5199 110.64 15.0299 106.96 14.7499 107.1Z" fill="#B5CF17"/>
<defs>
<radialGradient id="paint0_radial_4575_2586" cx="0" cy="0" r="1" gradientUnits="userSpaceOnUse" gradientTransform="translate(102.033 18.2877) scale(125.793 125.793)">
<stop offset="0.5544" stop-color="#85BB41"/>
<stop offset="0.6141" stop-color="#A2C65F"/>
<stop offset="0.706" stop-color="#C9D487"/>
<stop offset="0.7788" stop-color="#E1DDA0"/>
<stop offset="0.8231" stop-color="#EAE0A9"/>
</radialGradient>
</defs>
</svg>
