<svg width="434" height="146" viewBox="0 0 434 146" fill="none" xmlns="http://www.w3.org/2000/svg">
<path d="M175.629 129.498L176 37.8171V37.6943C176 31.9343 173.776 26.541 169.575 22.3733C165.498 18.2067 159.938 16 154.131 16L37.8686 16C32.0619 16 26.5019 18.2067 22.4248 22.3733C18.3476 26.419 16 31.9343 16 37.6952V37.8181L16.2476 129.499H21.8067C50.3476 129.499 76.4162 118.59 95.8143 100.695C116.077 119.326 142.148 129.499 169.946 129.499H175.63L175.629 129.498ZM122.873 62.2095C127.321 51.301 130.163 39.5333 130.781 27.1543H131.029C133.621 44.3143 147.458 57.9181 164.756 60.2476L164.632 83.2905C148.447 81.9419 133.621 74.4648 122.871 62.2086L122.873 62.2095ZM161.669 30.219C163.646 32.18 164.758 34.8762 164.758 37.6952V48.8495C153.514 46.7657 144.619 38.0629 142.271 27.0324H154.131C156.973 27.1543 159.691 28.2581 161.668 30.219H161.669ZM60.9733 27.1543H84.2019C81.4838 56.939 57.3905 80.7162 27.3676 83.2914L27.2438 60.2486C44.6648 57.7971 58.379 44.3143 60.9743 27.1543H60.9733ZM27.2438 37.8181C27.2438 34.999 28.3562 32.3029 30.3333 30.3419C32.3095 28.38 35.0286 27.2771 37.8695 27.2771H49.6067C47.26 38.3086 38.4876 47.0105 27.2448 49.0943V37.8181H27.2438ZM27.4914 118.223L27.3676 94.3219C63.5676 91.6257 92.6029 62.9448 95.4448 27.0324L119.537 27.0324C116.695 76.1819 76.9114 115.527 27.4895 118.223H27.4914ZM103.722 92.7276C109.075 86.6736 113.756 80.0572 117.684 72.9943C130.162 85.4962 146.718 93.0952 164.633 94.4438L164.51 118.345C141.776 116.996 120.525 108.05 103.722 92.7276V92.7276Z" fill="url(#paint0_linear_4547_2587)"/>
<path d="M234.934 46.4688H245.938C250.719 46.4688 254.363 47.2656 256.871 48.8594C258.934 50.1484 260.551 51.9648 261.723 54.3086C262.895 56.7227 263.48 59.2656 263.48 61.9375C263.48 65.8281 262.391 69.25 260.211 72.2031C256.977 76.5859 251.879 78.7773 244.918 78.7773H238.977L236.27 100.75H228.219L234.934 46.4688ZM242.035 53.957L239.855 71.6406H245.094C248.398 71.6406 250.93 70.7969 252.688 69.1094C254.469 67.3984 255.359 64.9375 255.359 61.7266C255.359 56.5469 252.055 53.957 245.445 53.957H242.035ZM303.447 83.875C303.447 88.9375 301.689 93.1914 298.173 96.6367C294.681 100.082 290.369 101.805 285.236 101.805C279.869 101.805 275.486 100.176 272.088 96.918C268.666 93.6367 266.955 89.4883 266.955 84.4727C266.955 79.3398 268.724 75.0742 272.263 71.6758C275.826 68.2539 280.279 66.543 285.623 66.543C290.873 66.543 295.15 68.1602 298.455 71.3945C301.783 74.582 303.447 78.7422 303.447 83.875ZM295.607 83.4883C295.607 80.3008 294.681 77.7812 292.83 75.9297C290.978 74.0078 288.552 73.0469 285.552 73.0469C282.435 73.0469 279.857 74.1133 277.818 76.2461C275.779 78.4023 274.759 81.1094 274.759 84.3672C274.759 87.6484 275.72 90.2852 277.642 92.2773C279.564 94.3164 282.048 95.3359 285.095 95.3359C288.142 95.3359 290.65 94.2227 292.619 91.9961C294.611 89.793 295.607 86.957 295.607 83.4883ZM323.409 67.6328L322.988 71.1133C326.339 68.2539 329.866 66.8242 333.57 66.8242C337.976 66.8242 341.644 68.3594 344.573 71.4297C347.503 74.5 348.968 78.3789 348.968 83.0664C348.968 88.2695 347.292 92.6523 343.941 96.2148C340.613 99.7539 336.476 101.523 331.53 101.523C328.999 101.523 326.925 101.125 325.308 100.328C323.62 99.5312 321.827 98.0898 319.929 96.0039L317.011 119.699H309.241L315.64 67.6328H323.409ZM341.198 83.3828C341.198 80.4531 340.355 78.0508 338.667 76.1758C336.98 74.2773 334.823 73.3281 332.198 73.3281C329.058 73.3281 326.433 74.4766 324.323 76.7734C322.214 79.0703 321.159 81.8945 321.159 85.2461C321.159 88.1758 322.05 90.5312 323.831 92.3125C325.613 94.1406 327.909 95.0547 330.722 95.0547C333.675 95.0547 336.159 93.9297 338.175 91.6797C340.191 89.3828 341.198 86.6172 341.198 83.3828ZM393.645 67.6328L389.567 100.75H381.798L382.255 97.1641C378.927 100.07 375.481 101.523 371.919 101.523C367.536 101.523 363.962 100.035 361.196 97.0586C358.43 94.082 357.048 90.2266 357.048 85.4922C357.048 80.0312 358.63 75.5547 361.794 72.0625C365.005 68.5703 369.118 66.8242 374.134 66.8242C376.501 66.8242 378.516 67.2109 380.18 67.9844C381.868 68.7578 383.591 70.0938 385.348 71.9922L385.876 67.6328H393.645ZM384.188 83.2422C384.188 80.3125 383.345 77.9336 381.657 76.1055C379.97 74.2539 377.79 73.3281 375.118 73.3281C372.212 73.3281 369.774 74.4648 367.805 76.7383C365.837 79.0352 364.852 81.8477 364.852 85.1758C364.852 88.082 365.673 90.4609 367.313 92.3125C368.954 94.1641 371.063 95.0898 373.641 95.0898C376.501 95.0898 378.973 93.9297 381.059 91.6094C383.145 89.2422 384.188 86.4531 384.188 83.2422ZM416.104 51.8828C416.104 53.0078 415.694 53.9805 414.873 54.8008C414.053 55.6211 413.069 56.0312 411.92 56.0312C410.772 56.0312 409.776 55.6094 408.932 54.7656C408.112 53.875 407.702 52.8555 407.702 51.707C407.702 50.5586 408.1 49.5859 408.897 48.7891C409.717 47.9688 410.69 47.5586 411.815 47.5586C412.963 47.5586 413.959 47.9922 414.803 48.8594C415.67 49.7031 416.104 50.7109 416.104 51.8828ZM413.678 67.6328L409.6 100.75H401.83L405.909 67.6328H413.678Z" fill="url(#paint1_linear_4547_2587)"/>
<defs>
<linearGradient id="paint0_linear_4547_2587" x1="10.5936" y1="118.52" x2="98.9312" y2="30.8867" gradientUnits="userSpaceOnUse">
<stop stop-color="#5C33F3"/>
<stop offset="1" stop-color="#2CADFF"/>
</linearGradient>
<linearGradient id="paint1_linear_4547_2587" x1="399.234" y1="123.994" x2="366.574" y2="30.2036" gradientUnits="userSpaceOnUse">
<stop stop-color="#5C33F3"/>
<stop offset="1" stop-color="#2CADFF"/>
</linearGradient>
</defs>
</svg>
