<svg width="458" height="144" viewBox="0 0 458 144" fill="none" xmlns="http://www.w3.org/2000/svg">
<path d="M38.9396 86.7496C38.9396 85.8096 38.6296 72.3196 37.3696 67.4596C36.1096 62.5996 33.7596 60.3996 33.1296 53.3396C32.4996 46.2796 36.5996 40.3596 38.4696 38.1496C41.9196 34.0796 46.9296 32.1696 46.9296 32.1696C46.9296 32.1696 45.7596 24.9996 51.3196 21.6596C57.5996 17.8896 62.3096 23.9996 63.2496 24.4696C64.1896 24.9396 83.3296 14.4396 83.3296 14.4396C83.3296 14.4396 86.7796 11.8296 93.5296 11.9296C102.85 12.0596 106.68 17.7196 108.43 19.7696C111.1 22.9096 113.35 30.4996 113.2 35.0496C113.05 39.5996 111.97 41.7596 112.49 42.8396C113.01 43.9196 115.86 43.3896 118.42 46.4596C120.77 49.2796 123.92 53.7496 124.08 62.0596C124.23 70.1096 116.36 80.7496 114.48 82.4696C112.6 84.1996 110.39 85.9496 108.82 88.3096C107.25 90.6596 105.29 95.3996 101.22 98.5396C97.1396 101.68 90.8796 102.9 86.7996 103.37C82.7196 103.84 78.5996 103.03 75.7596 104.9C72.8196 106.83 69.3396 115.07 63.6796 119.49C60.3596 122.09 57.5496 123.09 54.3696 123.26C49.4896 123.53 47.3596 122.35 45.3896 121.79C42.0796 120.85 38.9396 86.7496 38.9396 86.7496Z" fill="#598B15"/>
<path d="M30.4299 110.03C30.4299 110.03 23.7899 105.18 25.6299 95.9999C27.2699 87.7999 32.0699 84.3499 34.2499 76.7299C36.4099 69.1699 35.1299 65.8599 34.5799 62.2799C33.9799 58.3699 33.6599 58.0699 34.1099 57.8699C34.5799 57.6599 38.9399 69.6499 38.9399 69.9199C39.0299 73.3899 40.0199 79.2299 39.2899 82.7699C38.5599 86.3099 31.6599 91.3899 31.2099 94.8399C30.7599 98.2899 29.3899 106.01 30.2099 108.09C31.0299 110.18 35.0199 110.92 35.0199 110.92L30.4299 110.03Z" fill="#85BB41"/>
<path d="M30.9404 109.02C30.5804 109.5 29.1304 111.31 27.5604 112.64C25.9904 113.97 22.4904 114.81 22.6104 115.66C22.7304 116.5 32.7404 125.55 32.7404 125.55L41.0404 131.52C41.0404 131.52 43.4804 128.65 45.0204 125.86C45.8604 124.34 46.8604 122.29 46.8604 122.29C46.8604 122.29 49.5204 123.51 53.6304 122.85C59.7804 121.87 65.3404 114.74 67.7404 110.47C69.2604 107.77 72.0704 102.38 76.5304 99.8497C80.9904 97.3197 86.3404 96.8897 91.4104 94.1197C95.3804 91.9397 100.78 87.1797 102.95 83.6897C105.12 80.1897 105 78.8897 105 78.8897C105 78.8897 116.7 65.3497 112.72 50.3897C108.74 35.4297 104.76 37.1197 101.98 33.2597C99.2104 29.3997 98.8404 19.6297 89.1904 15.6497C79.5404 11.6697 69.9004 15.6297 64.9204 19.6897C60.1304 23.5897 52.1804 29.9497 47.7904 44.6297C45.5204 52.2397 47.7804 64.7797 47.4904 68.0697C47.0104 73.4697 40.5904 80.6797 40.5904 80.6797C40.5904 80.6797 33.3504 88.8797 32.9904 89.8497C32.6304 90.8197 29.9704 102.76 29.9704 102.76L30.9404 109.02Z" fill="url(#paint0_radial_4566_2588)"/>
<path d="M49.6504 109.91C50.5604 110 57.7304 109 62.6304 102.56C67.5304 96.1199 67.4404 88.4899 67.3504 88.7599C67.2604 89.0299 54.7304 90.3899 54.5504 94.6599C54.3704 98.9199 49.6504 109.91 49.6504 109.91Z" fill="#598B15"/>
<path d="M34.2804 112.73C34.2804 112.73 27.3804 110.47 28.0004 100.99C28.6004 91.7404 36.0704 87.5505 37.4304 77.1604C38.0904 72.1304 36.6904 68.2104 35.4504 64.0004C34.1004 59.4104 33.0004 54.9704 33.7504 56.4604C34.9204 58.7904 35.7804 60.3104 38.5004 66.8704C40.1304 70.8004 41.4404 75.5404 40.8304 80.3304C39.8404 88.1204 32.4904 94.4805 31.8604 100.91C31.1204 108.45 34.9104 111.68 34.9104 111.68L34.2804 112.73Z" fill="#E9E7D7"/>
<path d="M38.0397 119.83C35.7197 117.78 32.4697 113.4 34.0797 107.71C36.1797 100.29 40.7597 97.9404 45.3297 91.0104C49.8997 84.0804 50.6497 77.5604 50.7397 70.6204C50.8597 61.3404 51.3897 53.9004 52.9997 53.4104C54.6097 52.9204 53.7797 62.6704 54.1497 70.7104C54.4097 76.2704 55.0997 84.8204 55.0997 84.8204C55.0997 84.8204 60.0097 80.7004 61.1897 75.1304C63.2897 65.2404 59.3297 54.5304 60.1697 43.3904C60.7997 35.1004 64.7297 27.0504 68.6997 22.7404C71.5397 19.6504 74.3897 17.3004 75.2497 17.7904C76.1097 18.2804 70.2997 24.2204 67.7097 31.1504C65.1197 38.0804 64.5097 44.8804 65.4997 52.3004C66.4897 59.7204 67.8797 67.0804 68.7497 66.8304C69.6197 66.5804 74.9097 56.0604 76.5597 47.9704C78.1697 40.0504 78.9897 34.7404 82.8197 29.4204C86.6497 24.1004 91.1097 21.0104 91.8497 21.7504C93.1597 23.0604 88.2897 25.4504 85.0797 33.3604C83.1597 38.0804 83.1997 41.3304 81.5397 49.5104C80.6897 53.7204 77.5297 63.1404 77.6497 63.5204C77.7697 63.9004 82.1097 61.7004 85.1997 59.4804C88.2897 57.2604 93.7097 53.1404 98.5297 46.8304C101.26 43.2504 103.1 40.3004 104.34 41.1604C105.58 42.0304 100.04 52.7004 94.9197 57.4704C87.6197 64.2704 78.2397 69.3604 78.2397 70.3404C78.2397 71.3204 87.1797 70.5304 96.0897 68.0704C103.26 66.0904 110.89 60.5704 111.76 61.9304C112.63 63.2904 103.72 68.3404 97.9197 70.5904C88.6397 74.1804 80.8397 73.8104 75.5197 77.0204C70.1997 80.2404 67.0197 85.5604 66.4897 86.5404C66.2997 86.8904 75.3897 84.4404 84.0497 83.2004C92.7097 81.9604 104.58 77.7604 104.95 79.1204C105.32 80.4804 100.62 83.2004 90.2297 85.6704C79.8397 88.1404 71.9297 90.4904 66.2397 94.0804C60.5497 97.6704 56.9697 102.02 53.9997 107.21C51.0297 112.4 50.9797 120.58 46.6497 122.44C43.7997 123.66 40.1497 121.68 38.0397 119.83Z" fill="#E9E7D7"/>
<path d="M22.7499 115.1C21.4699 115.74 21.9799 117.63 22.7399 118.78C23.8899 120.55 25.8399 122.56 30.5099 126.21C34.1399 129.04 35.9599 130.33 38.0599 131.24C39.6999 131.95 41.3499 131.99 41.6199 130.89C41.6899 130.61 35.7299 126.74 31.9799 123.76C25.5199 118.64 23.0299 114.96 22.7499 115.1Z" fill="#B5CF17"/>
<path d="M171.594 79.6094V109H160.672V36.625H173.047C179.109 36.625 183.688 37.0469 186.781 37.8906C189.906 38.7344 192.656 40.3281 195.031 42.6719C199.188 46.7344 201.266 51.8594 201.266 58.0469C201.266 64.6719 199.047 69.9219 194.609 73.7969C190.172 77.6719 184.188 79.6094 176.656 79.6094H171.594ZM171.594 69.4844H175.672C185.703 69.4844 190.719 65.625 190.719 57.9062C190.719 50.4375 185.547 46.7031 175.203 46.7031H171.594V69.4844ZM210.306 72.4844C210.306 62.2969 214.041 53.5469 221.509 46.2344C228.947 38.9219 237.884 35.2656 248.322 35.2656C258.634 35.2656 267.478 38.9531 274.853 46.3281C282.259 53.7031 285.963 62.5625 285.963 72.9062C285.963 83.3125 282.244 92.1406 274.806 99.3906C267.338 106.672 258.322 110.312 247.759 110.312C238.416 110.312 230.025 107.078 222.588 100.609C214.4 93.4531 210.306 84.0781 210.306 72.4844ZM221.322 72.625C221.322 80.625 224.009 87.2031 229.384 92.3594C234.728 97.5156 240.9 100.094 247.9 100.094C255.494 100.094 261.9 97.4688 267.119 92.2188C272.338 86.9062 274.947 80.4375 274.947 72.8125C274.947 65.0938 272.369 58.625 267.213 53.4062C262.088 48.1562 255.744 45.5312 248.181 45.5312C240.65 45.5312 234.291 48.1562 229.103 53.4062C223.916 58.5938 221.322 65 221.322 72.625ZM312.019 79.6094V109H301.097V36.625H313.472C319.534 36.625 324.113 37.0469 327.206 37.8906C330.331 38.7344 333.081 40.3281 335.456 42.6719C339.613 46.7344 341.691 51.8594 341.691 58.0469C341.691 64.6719 339.472 69.9219 335.034 73.7969C330.597 77.6719 324.613 79.6094 317.081 79.6094H312.019ZM312.019 69.4844H316.097C326.128 69.4844 331.144 65.625 331.144 57.9062C331.144 50.4375 325.972 46.7031 315.628 46.7031H312.019V69.4844ZM391.512 91.4219H360.528L352.466 109H340.7L376.512 32.0781L411.059 109H399.106L391.512 91.4219ZM387.059 81.1562L376.325 56.5469L365.075 81.1562H387.059ZM432.475 36.625V109H421.553V36.625H432.475Z" fill="url(#paint1_linear_4566_2588)"/>
<defs>
<radialGradient id="paint0_radial_4566_2588" cx="0" cy="0" r="1" gradientUnits="userSpaceOnUse" gradientTransform="translate(110.033 26.2877) scale(125.793 125.793)">
<stop offset="0.5544" stop-color="#85BB41"/>
<stop offset="0.6141" stop-color="#A2C65F"/>
<stop offset="0.706" stop-color="#C9D487"/>
<stop offset="0.7788" stop-color="#E1DDA0"/>
<stop offset="0.8231" stop-color="#EAE0A9"/>
</radialGradient>
<linearGradient id="paint1_linear_4566_2588" x1="194.765" y1="54" x2="309.763" y2="208.049" gradientUnits="userSpaceOnUse">
<stop stop-color="#598B15"/>
<stop offset="0.600297" stop-color="#92C156"/>
<stop offset="1" stop-color="#EAE0A9"/>
</linearGradient>
</defs>
</svg>
