<svg width="815" height="349" viewBox="0 0 815 349" fill="none" xmlns="http://www.w3.org/2000/svg">
<path d="M378.297 133.422V170.219H403.844C410.25 170.115 415.068 168.135 418.297 164.281C421.37 160.531 422.906 156.365 422.906 151.781C422.906 147.979 422.281 144.776 421.031 142.172C419.729 139.828 417.906 137.979 415.562 136.625C412.021 134.385 407.906 133.318 403.219 133.422H378.297ZM361.031 231V117.094H402.281C406.76 117.094 411.083 117.51 415.25 118.344C419.417 119.438 423.635 121.677 427.906 125.062C431.5 127.615 434.417 131.26 436.656 136C439 140.583 440.172 146 440.172 152.25C440.172 160.688 437.203 168.37 431.266 175.297C425.172 182.589 416.266 186.339 404.547 186.547H378.297V231H361.031ZM464.769 174.047C464.769 160.818 465.159 151.964 465.941 147.484C466.774 143.005 468.05 139.385 469.769 136.625C472.529 131.365 476.956 126.677 483.05 122.562C489.04 118.396 496.514 116.26 505.472 116.156C514.534 116.26 522.086 118.396 528.128 122.562C534.118 126.677 538.441 131.365 541.097 136.625C543.024 139.385 544.352 143.005 545.081 147.484C545.758 151.964 546.097 160.818 546.097 174.047C546.097 187.068 545.758 195.87 545.081 200.453C544.352 205.036 543.024 208.708 541.097 211.469C538.441 216.729 534.118 221.365 528.128 225.375C522.086 229.542 514.534 231.729 505.472 231.938C496.514 231.729 489.04 229.542 483.05 225.375C476.956 221.365 472.529 216.729 469.769 211.469C468.935 209.75 468.18 208.109 467.503 206.547C466.878 204.932 466.357 202.901 465.941 200.453C465.159 195.87 464.769 187.068 464.769 174.047ZM482.113 174.047C482.113 185.245 482.529 192.823 483.363 196.781C484.092 200.74 485.576 203.943 487.816 206.391C489.639 208.734 492.034 210.635 495.003 212.094C497.92 213.812 501.409 214.672 505.472 214.672C509.586 214.672 513.154 213.812 516.175 212.094C519.04 210.635 521.331 208.734 523.05 206.391C525.29 203.943 526.826 200.74 527.659 196.781C528.441 192.823 528.831 185.245 528.831 174.047C528.831 162.849 528.441 155.219 527.659 151.156C526.826 147.302 525.29 144.151 523.05 141.703C521.331 139.359 519.04 137.406 516.175 135.844C513.154 134.333 509.586 133.526 505.472 133.422C501.409 133.526 497.92 134.333 495.003 135.844C492.034 137.406 489.639 139.359 487.816 141.703C485.576 144.151 484.092 147.302 483.363 151.156C482.529 155.219 482.113 162.849 482.113 174.047ZM596.397 133.422V170.219H621.944C628.35 170.115 633.168 168.135 636.397 164.281C639.47 160.531 641.006 156.365 641.006 151.781C641.006 147.979 640.381 144.776 639.131 142.172C637.829 139.828 636.006 137.979 633.663 136.625C630.121 134.385 626.006 133.318 621.319 133.422H596.397ZM579.131 231V117.094H620.381C624.86 117.094 629.183 117.51 633.35 118.344C637.517 119.438 641.735 121.677 646.006 125.062C649.6 127.615 652.517 131.26 654.756 136C657.1 140.583 658.272 146 658.272 152.25C658.272 160.688 655.303 168.37 649.366 175.297C643.272 182.589 634.366 186.339 622.647 186.547H596.397V231H579.131ZM695.056 190.219H728.337L711.853 140.453H711.541L695.056 190.219ZM742.087 231L733.259 205.531H690.056L681.306 231H663.025L704.431 117.094H718.884L760.291 231H742.087ZM785.356 231V117.094H802.622V231H785.356Z" fill="#00A356"/>
<path d="M291.373 246.372C253.214 309.229 148.331 303.243 85.474 265.084C22.6169 226.925 25.5889 171.044 63.7479 108.187C101.907 45.3296 141.893 26.7282 204.75 64.8871C267.607 103.046 329.532 183.515 291.373 246.372Z" fill="#00A356"/>
<path d="M202.354 207.318C195.028 214.926 185.077 219.416 174 219.416C162.923 219.416 152.967 214.735 145.646 207.318C138.319 199.71 134 189.366 134 177.854C134 161.464 155.219 128.88 169.303 107.22C170.993 104.686 172.496 102.146 174 100C175.504 102.146 177.007 104.681 178.697 107.22C192.781 129.072 214 161.464 214 177.854C214 189.366 209.495 199.705 202.354 207.318Z" stroke="white" stroke-width="10" stroke-linecap="round" stroke-linejoin="round"/>
<path d="M174.069 141.254V243.451" stroke="white" stroke-width="10" stroke-linecap="round" stroke-linejoin="round"/>
<path d="M175.259 205.316L211.508 169.066" stroke="white" stroke-width="10" stroke-linecap="round" stroke-linejoin="round"/>
<path d="M204.803 152.294L173.952 183.151" stroke="white" stroke-width="10" stroke-linecap="round" stroke-linejoin="round"/>
<path d="M172.645 205.315L135.567 168.243" stroke="white" stroke-width="10" stroke-linecap="round" stroke-linejoin="round"/>
<path d="M143.096 152.294L173.953 183.151" stroke="white" stroke-width="10" stroke-linecap="round" stroke-linejoin="round"/>
</svg>
