<svg width="160" height="114" viewBox="0 0 160 114" fill="none" xmlns="http://www.w3.org/2000/svg">
<path d="M159.629 113.498L160 21.8171V21.6943C160 15.9343 157.776 10.541 153.575 6.37333C149.498 2.20667 143.938 0 138.131 0L21.8686 0C16.0619 0 10.5019 2.20667 6.42476 6.37333C2.34763 10.419 0 15.9343 0 21.6952V21.8181L0.24762 113.499H5.80667C34.3476 113.499 60.4162 102.59 79.8143 84.6952C100.077 103.326 126.148 113.499 153.946 113.499H159.63L159.629 113.498ZM106.873 46.2095C111.321 35.3009 114.163 23.5333 114.781 11.1543H115.029C117.621 28.3143 131.458 41.9181 148.756 44.2476L148.632 67.2905C132.447 65.9419 117.621 58.4648 106.871 46.2086L106.873 46.2095ZM145.669 14.219C147.646 16.18 148.758 18.8762 148.758 21.6952V32.8495C137.514 30.7657 128.619 22.0629 126.271 11.0324H138.131C140.973 11.1543 143.691 12.2581 145.668 14.219H145.669ZM44.9733 11.1543L68.2019 11.1543C65.4838 40.939 41.3905 64.7162 11.3676 67.2914L11.2438 44.2486C28.6648 41.7971 42.379 28.3143 44.9743 11.1543H44.9733ZM11.2438 21.8181C11.2438 18.999 12.3562 16.3029 14.3333 14.3419C16.3095 12.38 19.0286 11.2771 21.8695 11.2771L33.6067 11.2771C31.26 22.3086 22.4876 31.0105 11.2448 33.0943V21.8181H11.2438ZM11.4914 102.223L11.3676 78.3219C47.5676 75.6257 76.6029 46.9448 79.4448 11.0324L103.537 11.0324C100.695 60.1819 60.9114 99.5267 11.4895 102.223H11.4914ZM87.7219 76.7276C93.0751 70.6736 97.7564 64.0572 101.684 56.9943C114.162 69.4962 130.718 77.0952 148.633 78.4438L148.51 102.345C125.776 100.996 104.525 92.0495 87.7219 76.7276Z" fill="url(#paint0_linear_3650_2613)"/>
<defs>
<linearGradient id="paint0_linear_3650_2613" x1="-5.40641" y1="102.52" x2="82.9312" y2="14.8867" gradientUnits="userSpaceOnUse">
<stop stop-color="#5C33F3"/>
<stop offset="1" stop-color="#2CADFF"/>
</linearGradient>
</defs>
</svg>
