<svg width="424" height="114" viewBox="0 0 424 114" fill="none" xmlns="http://www.w3.org/2000/svg">
<g clip-path="url(#clip0_45_596)">
<path d="M159.629 113.498L160 21.8171V21.6943C160 15.9343 157.776 10.541 153.575 6.37333C149.498 2.20667 143.938 0 138.131 0H21.8686C16.0619 0 10.5019 2.20667 6.42476 6.37333C2.34763 10.419 0 15.9343 0 21.6952V21.8181L0.24762 113.499H5.80667C34.3476 113.499 60.4162 102.59 79.8143 84.6952C100.077 103.326 126.148 113.499 153.946 113.499H159.63L159.629 113.498ZM106.873 46.2095C111.321 35.3009 114.163 23.5333 114.781 11.1543H115.029C117.621 28.3143 131.458 41.9181 148.756 44.2476L148.632 67.2905C132.447 65.9419 117.621 58.4648 106.871 46.2086L106.873 46.2095ZM145.669 14.219C147.646 16.18 148.758 18.8762 148.758 21.6952V32.8495C137.514 30.7657 128.619 22.0629 126.271 11.0324H138.131C140.973 11.1543 143.691 12.2581 145.668 14.219H145.669ZM44.9733 11.1543H68.2019C65.4838 40.939 41.3905 64.7162 11.3676 67.2914L11.2438 44.2486C28.6648 41.7971 42.378 28.3143 44.9733 11.1543ZM11.2438 21.8181C11.2438 18.999 12.3562 16.3029 14.3333 14.3419C16.3095 12.38 19.0286 11.2771 21.8695 11.2771H33.6067C31.26 22.3086 22.4876 31.0105 11.2448 33.0943L11.2438 21.8181ZM11.4914 102.223L11.3676 78.3219C47.5676 75.6257 76.6029 46.9448 79.4448 11.0324H103.537C100.695 60.1819 60.9114 99.5267 11.4895 102.223H11.4914ZM87.7219 76.7276C93.0751 70.6736 97.7564 64.0572 101.684 56.9943C114.162 69.4962 130.718 77.0952 148.633 78.4438L148.51 102.345C125.776 100.996 104.525 92.0495 87.7219 76.7276Z" fill="url(#paint0_linear_45_596)"/>
</g>
<path d="M199.344 90L220.625 21.75H235.344L256.297 90H243.641L229.156 40.3125C228.812 39.0312 228.516 37.9219 228.266 36.9844C228.016 36.0156 227.766 35.125 227.516 34.3125H227.375C227.156 35.125 226.906 36.0156 226.625 36.9844C226.375 37.9219 226.078 39.0312 225.734 40.3125L211.766 90H199.344ZM210.359 74.4375L212.281 65.7188H242.938L245.047 74.4375H210.359ZM260.141 90V46.875H272.328L272.375 52.9219H272.469C273.688 50.7031 275.5 48.9688 277.906 47.7188C280.312 46.4375 283.203 45.7969 286.578 45.7969C290.922 45.7969 294.406 47.0156 297.031 49.4531C299.688 51.8594 301.016 55.8594 301.016 61.4531V90H288.594V63.5625C288.594 60.5625 287.953 58.4375 286.672 57.1875C285.422 55.9062 283.656 55.2656 281.375 55.2656C279.375 55.2656 277.609 55.8438 276.078 57C274.578 58.1562 273.406 59.6719 272.562 61.5469V90H260.141ZM309.266 105.75L311.844 97.1719C313.219 98.2344 315.281 99.2812 318.031 100.312C320.781 101.344 323.641 101.859 326.609 101.859C329.797 101.859 332.609 100.859 335.047 98.8594C337.516 96.8906 338.75 93.4531 338.75 88.5469V84.0469C337.344 85.9844 335.531 87.5625 333.312 88.7812C331.125 89.9688 328.266 90.5625 324.734 90.5625C319.359 90.5625 315.094 88.5781 311.938 84.6094C308.781 80.6094 307.203 75.4531 307.203 69.1406V67.6406C307.203 61.3281 308.734 56.1406 311.797 52.0781C314.859 47.9844 319.203 45.9375 324.828 45.9375C327.797 45.9375 330.516 46.5625 332.984 47.8125C335.484 49.0625 337.375 50.6562 338.656 52.5938H338.75L338.797 46.875H350.938V86.625C350.938 94.4375 348.953 100.375 344.984 104.438C341.016 108.531 335.562 110.578 328.625 110.578C324.594 110.578 320.906 110.094 317.562 109.125C314.25 108.188 311.484 107.062 309.266 105.75ZM319.578 69.0469C319.578 72.8906 320.359 76 321.922 78.375C323.516 80.75 326.016 81.9375 329.422 81.9375C331.672 81.9375 333.594 81.3125 335.188 80.0625C336.812 78.7812 337.953 77.3125 338.609 75.6562V60.9375C337.922 59.3125 336.781 57.875 335.188 56.625C333.594 55.375 331.672 54.75 329.422 54.75C326.016 54.75 323.516 55.9688 321.922 58.4062C320.359 60.8438 319.578 63.9844 319.578 67.8281V69.0469ZM357.453 69.0469V67.5469C357.453 60.9219 359.453 55.625 363.453 51.6562C367.484 47.6562 372.875 45.6562 379.625 45.6562C386.25 45.6562 391.328 47.5469 394.859 51.3281C398.422 55.1094 400.203 60.3438 400.203 67.0312V70.5469H364.062V63.8438H388.203V63.5156C388.203 61.0781 387.516 58.9688 386.141 57.1875C384.766 55.4062 382.562 54.5156 379.531 54.5156C376.344 54.5156 373.922 55.6562 372.266 57.9375C370.641 60.1875 369.828 63.0156 369.828 66.4219V69.1406C369.828 73.2031 370.703 76.3906 372.453 78.7031C374.234 81.0156 376.781 82.1719 380.094 82.1719C382.469 82.1719 384.453 81.7031 386.047 80.7656C387.641 79.7969 388.875 78.5312 389.75 76.9688L399.922 80.3438C398.578 83.5625 396.312 86.1562 393.125 88.125C389.938 90.0938 385.625 91.0781 380.188 91.0781C372.969 91.0781 367.375 89.1094 363.406 85.1719C359.438 81.2031 357.453 75.8281 357.453 69.0469ZM406.625 90V21.6094H419.094V90H406.625Z" fill="#2DADFF"/>
<defs>
<linearGradient id="paint0_linear_45_596" x1="-5.40641" y1="102.52" x2="82.9312" y2="14.8867" gradientUnits="userSpaceOnUse">
<stop stop-color="#5C33F3"/>
<stop offset="1" stop-color="#2CADFF"/>
</linearGradient>
<clipPath id="clip0_45_596">
<rect width="160" height="114" fill="white"/>
</clipPath>
</defs>
</svg>
